<?xml version="1.0" encoding="UTF-8"?>
<svg xmlns="http://www.w3.org/2000/svg" xmlns:xlink="http://www.w3.org/1999/xlink" width="960pt" height="540pt" viewBox="0 0 960 540">
<defs>
<g>
<g id="glyph-0-0">
<path d="M -30.9375 -11.953125 L -30.9375 -0.59375 L -34 -0.59375 L -34 -26.8125 L -30.9375 -26.8125 L -30.9375 -15.40625 L 0 -15.40625 L 0 -11.953125 Z M -30.9375 -11.953125 "/>
</g>
<g id="glyph-0-1">
<path d="M -34 -15.171875 L -34 -18.546875 L 0 -33.140625 L 0 -29.296875 L -8.9375 -25.5625 L -8.9375 -7.96875 L 0 -4.265625 L 0 -0.46875 Z M -12.109375 -24.25 L -30.15625 -16.765625 L -12.109375 -9.265625 Z M -12.109375 -24.25 "/>
</g>
<g id="glyph-0-2">
<path d="M -34 -4.53125 L -34 -14.65625 C -34 -15.9375 -33.863281 -17.226562 -33.59375 -18.53125 C -33.320312 -19.84375 -32.859375 -21.019531 -32.203125 -22.0625 C -31.546875 -23.113281 -30.65625 -23.96875 -29.53125 -24.625 C -28.414062 -25.28125 -27.007812 -25.609375 -25.3125 -25.609375 C -23.519531 -25.609375 -21.957031 -25.0625 -20.625 -23.96875 C -19.300781 -22.875 -18.429688 -21.421875 -18.015625 -19.609375 L -17.921875 -19.609375 C -17.671875 -21.804688 -16.8125 -23.632812 -15.34375 -25.09375 C -13.882812 -26.550781 -11.90625 -27.28125 -9.40625 -27.28125 C -8 -27.28125 -6.710938 -26.984375 -5.546875 -26.390625 C -4.378906 -25.796875 -3.382812 -24.953125 -2.5625 -23.859375 C -1.75 -22.773438 -1.117188 -21.453125 -0.671875 -19.890625 C -0.222656 -18.328125 0 -16.566406 0 -14.609375 L 0 -4.53125 Z M -2.984375 -14.40625 C -2.984375 -15.65625 -3.101562 -16.847656 -3.34375 -17.984375 C -3.582031 -19.128906 -3.960938 -20.125 -4.484375 -20.96875 C -5.015625 -21.8125 -5.703125 -22.488281 -6.546875 -23 C -7.398438 -23.519531 -8.421875 -23.78125 -9.609375 -23.78125 C -11.847656 -23.78125 -13.519531 -23.015625 -14.625 -21.484375 C -15.726562 -19.960938 -16.28125 -17.8125 -16.28125 -15.03125 L -16.28125 -7.96875 L -2.984375 -7.96875 Z M -19.109375 -14.9375 C -19.109375 -15.769531 -19.207031 -16.609375 -19.40625 -17.453125 C -19.601562 -18.304688 -19.929688 -19.082031 -20.390625 -19.78125 C -20.847656 -20.488281 -21.457031 -21.054688 -22.21875 -21.484375 C -22.988281 -21.921875 -23.941406 -22.140625 -25.078125 -22.140625 C -26.171875 -22.140625 -27.09375 -21.921875 -27.84375 -21.484375 C -28.59375 -21.054688 -29.203125 -20.472656 -29.671875 -19.734375 C -30.148438 -19.003906 -30.492188 -18.144531 -30.703125 -17.15625 C -30.921875 -16.164062 -31.03125 -15.109375 -31.03125 -13.984375 L -31.03125 -7.96875 L -19.109375 -7.96875 Z M -19.109375 -14.9375 "/>
</g>
<g id="glyph-0-3">
<path d="M -34 -4.53125 L -34 -7.96875 L -3.078125 -7.96875 L -3.078125 -23.828125 L 0 -23.828125 L 0 -4.53125 Z M -34 -4.53125 "/>
</g>
<g id="glyph-0-4">
<path d="M -34 -4.53125 L -34 -25.609375 L -30.9375 -25.609375 L -30.9375 -7.96875 L -19.203125 -7.96875 L -19.203125 -24.4375 L -16.1875 -24.4375 L -16.1875 -7.96875 L -3.078125 -7.96875 L -3.078125 -26.171875 L 0 -26.171875 L 0 -4.53125 Z M -34 -4.53125 "/>
</g>
<g id="glyph-0-5">
</g>
<g id="glyph-0-6">
<path d="M -17 -2.703125 C -19.59375 -2.703125 -21.976562 -3.144531 -24.15625 -4.03125 C -26.332031 -4.925781 -28.210938 -6.164062 -29.796875 -7.75 C -31.378906 -9.332031 -32.617188 -11.207031 -33.515625 -13.375 C -34.421875 -15.539062 -34.875 -17.882812 -34.875 -20.40625 C -34.875 -22.9375 -34.421875 -25.285156 -33.515625 -27.453125 C -32.617188 -29.617188 -31.378906 -31.488281 -29.796875 -33.0625 C -28.210938 -34.644531 -26.332031 -35.882812 -24.15625 -36.78125 C -21.976562 -37.6875 -19.59375 -38.140625 -17 -38.140625 C -14.40625 -38.140625 -12.019531 -37.6875 -9.84375 -36.78125 C -7.675781 -35.882812 -5.796875 -34.644531 -4.203125 -33.0625 C -2.617188 -31.488281 -1.375 -29.617188 -0.46875 -27.453125 C 0.425781 -25.285156 0.875 -22.9375 0.875 -20.40625 C 0.875 -17.882812 0.425781 -15.539062 -0.46875 -13.375 C -1.375 -11.207031 -2.617188 -9.332031 -4.203125 -7.75 C -5.796875 -6.164062 -7.675781 -4.925781 -9.84375 -4.03125 C -12.019531 -3.144531 -14.40625 -2.703125 -17 -2.703125 Z M -17 -34.46875 C -18.988281 -34.46875 -20.878906 -34.148438 -22.671875 -33.515625 C -24.460938 -32.890625 -26.035156 -31.96875 -27.390625 -30.75 C -28.753906 -29.53125 -29.835938 -28.046875 -30.640625 -26.296875 C -31.441406 -24.554688 -31.84375 -22.59375 -31.84375 -20.40625 C -31.84375 -18.226562 -31.441406 -16.265625 -30.640625 -14.515625 C -29.835938 -12.773438 -28.753906 -11.296875 -27.390625 -10.078125 C -26.035156 -8.859375 -24.460938 -7.925781 -22.671875 -7.28125 C -20.878906 -6.644531 -18.988281 -6.328125 -17 -6.328125 C -15.019531 -6.328125 -13.132812 -6.644531 -11.34375 -7.28125 C -9.550781 -7.925781 -7.984375 -8.859375 -6.640625 -10.078125 C -5.296875 -11.296875 -4.21875 -12.773438 -3.40625 -14.515625 C -2.601562 -16.265625 -2.203125 -18.226562 -2.203125 -20.40625 C -2.203125 -22.59375 -2.601562 -24.554688 -3.40625 -26.296875 C -4.21875 -28.046875 -5.296875 -29.53125 -6.640625 -30.75 C -7.984375 -31.96875 -9.550781 -32.890625 -11.34375 -33.515625 C -13.132812 -34.148438 -15.019531 -34.46875 -17 -34.46875 Z M -17 -34.46875 "/>
</g>
<g id="glyph-0-7">
<path d="M -34 -4.53125 L -34 -25.03125 L -30.9375 -25.03125 L -30.9375 -7.96875 L -19.109375 -7.96875 L -19.109375 -23.828125 L -16.09375 -23.828125 L -16.09375 -7.96875 L 0 -7.96875 L 0 -4.53125 Z M -34 -4.53125 "/>
</g>
<g id="glyph-0-8">
<path d="M -17 -2.703125 C -19.59375 -2.703125 -21.976562 -3.144531 -24.15625 -4.03125 C -26.332031 -4.925781 -28.210938 -6.164062 -29.796875 -7.75 C -31.378906 -9.332031 -32.617188 -11.207031 -33.515625 -13.375 C -34.421875 -15.539062 -34.875 -17.882812 -34.875 -20.40625 C -34.875 -21.65625 -34.742188 -22.878906 -34.484375 -24.078125 C -34.222656 -25.285156 -33.863281 -26.414062 -33.40625 -27.46875 C -32.945312 -28.53125 -32.390625 -29.492188 -31.734375 -30.359375 C -31.078125 -31.222656 -30.328125 -31.9375 -29.484375 -32.5 L -27.375 -29.640625 C -27.914062 -29.285156 -28.457031 -28.8125 -29 -28.21875 C -29.550781 -27.625 -30.035156 -26.925781 -30.453125 -26.125 C -30.867188 -25.332031 -31.203125 -24.460938 -31.453125 -23.515625 C -31.710938 -22.566406 -31.84375 -21.546875 -31.84375 -20.453125 C -31.84375 -18.242188 -31.441406 -16.265625 -30.640625 -14.515625 C -29.835938 -12.773438 -28.753906 -11.296875 -27.390625 -10.078125 C -26.035156 -8.859375 -24.460938 -7.925781 -22.671875 -7.28125 C -20.878906 -6.644531 -18.988281 -6.328125 -17 -6.328125 C -15.019531 -6.328125 -13.132812 -6.65625 -11.34375 -7.3125 C -9.550781 -7.96875 -7.972656 -8.90625 -6.609375 -10.125 C -5.253906 -11.34375 -4.171875 -12.820312 -3.359375 -14.5625 C -2.554688 -16.3125 -2.15625 -18.273438 -2.15625 -20.453125 C -2.15625 -22.398438 -2.554688 -24.257812 -3.359375 -26.03125 C -4.171875 -27.800781 -5.453125 -29.269531 -7.203125 -30.4375 L -5.46875 -33.140625 C -4.601562 -32.554688 -3.785156 -31.859375 -3.015625 -31.046875 C -2.253906 -30.234375 -1.582031 -29.289062 -1 -28.21875 C -0.425781 -27.15625 0.0234375 -25.972656 0.359375 -24.671875 C 0.703125 -23.367188 0.875 -21.945312 0.875 -20.40625 C 0.875 -17.851562 0.425781 -15.484375 -0.46875 -13.296875 C -1.375 -11.117188 -2.617188 -9.242188 -4.203125 -7.671875 C -5.796875 -6.109375 -7.675781 -4.890625 -9.84375 -4.015625 C -12.019531 -3.140625 -14.40625 -2.703125 -17 -2.703125 Z M -17 -2.703125 "/>
</g>
<g id="glyph-0-9">
<path d="M -34 -4.53125 L -34 -8.84375 L -5.046875 -28.640625 L -5.046875 -28.734375 L -34 -28.734375 L -34 -32.171875 L 0 -32.171875 L 0 -27.859375 L -29.25 -8.0625 L -29.25 -7.96875 L 0 -7.96875 L 0 -4.53125 Z M -34 -4.53125 "/>
</g>
</g>
<clipPath id="clip-0">
<path clip-rule="nonzero" d="M 801.507812 23 L 818 23 L 818 42 L 801.507812 42 Z M 801.507812 23 "/>
</clipPath>
<clipPath id="clip-1">
<path clip-rule="nonzero" d="M 836 7.246094 L 909 7.246094 L 909 58 L 836 58 Z M 836 7.246094 "/>
</clipPath>
<clipPath id="clip-2">
<path clip-rule="nonzero" d="M 935 30 L 939.296875 30 L 939.296875 42 L 935 42 Z M 935 30 "/>
</clipPath>
<clipPath id="clip-3">
<path clip-rule="nonzero" d="M 935 23 L 939.296875 23 L 939.296875 28 L 935 28 Z M 935 23 "/>
</clipPath>
</defs>
<rect x="-96" y="-54" width="1152" height="648" fill="rgb(100%, 100%, 100%)" fill-opacity="1"/>
<path fill-rule="evenodd" fill="rgb(0%, 17.599487%, 38.398743%)" fill-opacity="1" stroke-width="1.5" stroke-linecap="butt" stroke-linejoin="miter" stroke="rgb(0%, 17.599487%, 38.398743%)" stroke-opacity="1" stroke-miterlimit="10" d="M 0 0.75 L 135 0.75 L 135 540.75 L 0 540.75 Z M 0 0.75 " transform="matrix(1, 0, 0, -1, 0, 540)"/>
<g fill="rgb(100%, 100%, 100%)" fill-opacity="1">
<use xlink:href="#glyph-0-0" x="133.48" y="501.7"/>
</g>
<g fill="rgb(100%, 100%, 100%)" fill-opacity="1">
<use xlink:href="#glyph-0-1" x="133.479999" y="476.9191"/>
</g>
<g fill="rgb(100%, 100%, 100%)" fill-opacity="1">
<use xlink:href="#glyph-0-2" x="133.479997" y="443.8779"/>
</g>
<g fill="rgb(100%, 100%, 100%)" fill-opacity="1">
<use xlink:href="#glyph-0-3" x="133.479996" y="413.1419"/>
</g>
<g fill="rgb(100%, 100%, 100%)" fill-opacity="1">
<use xlink:href="#glyph-0-4" x="133.479995" y="388.409025"/>
<use xlink:href="#glyph-0-5" x="133.479994" y="359.978225"/>
<use xlink:href="#glyph-0-6" x="133.479993" y="347.971975"/>
<use xlink:href="#glyph-0-7" x="133.479991" y="307.150725"/>
<use xlink:href="#glyph-0-5" x="133.47999" y="280.160675"/>
<use xlink:href="#glyph-0-8" x="133.47999" y="268.154425"/>
</g>
<g fill="rgb(100%, 100%, 100%)" fill-opacity="1">
<use xlink:href="#glyph-0-6" x="133.479988" y="234.39285"/>
</g>
<g fill="rgb(100%, 100%, 100%)" fill-opacity="1">
<use xlink:href="#glyph-0-9" x="133.479986" y="193.139375"/>
<use xlink:href="#glyph-0-0" x="133.479985" y="156.448275"/>
</g>
<g fill="rgb(100%, 100%, 100%)" fill-opacity="1">
<use xlink:href="#glyph-0-4" x="133.479984" y="129.266125"/>
<use xlink:href="#glyph-0-9" x="133.479982" y="100.835325"/>
</g>
<g fill="rgb(100%, 100%, 100%)" fill-opacity="1">
<use xlink:href="#glyph-0-0" x="133.479981" y="63.952125"/>
</g>
<path fill-rule="evenodd" fill="rgb(92.498779%, 10.198975%, 23.098755%)" fill-opacity="1" stroke-width="1.5" stroke-linecap="butt" stroke-linejoin="miter" stroke="rgb(92.498779%, 10.198975%, 23.098755%)" stroke-opacity="1" stroke-miterlimit="10" d="M 135.75 0.75 L 192.75 0.75 L 192.75 540.75 L 135.75 540.75 Z M 135.75 0.75 " transform="matrix(1, 0, 0, -1, 0, 540)"/>
<path fill-rule="nonzero" fill="rgb(0%, 17.599487%, 38.398743%)" fill-opacity="1" d="M 894.8125 27.375 L 910.867188 27.375 L 910.867188 23.875 L 894.8125 23.875 Z M 894.8125 27.375 "/>
<path fill-rule="nonzero" fill="rgb(0%, 17.599487%, 38.398743%)" fill-opacity="1" d="M 894.8125 34.375 L 910.867188 34.375 L 910.867188 30.875 L 894.8125 30.875 Z M 894.8125 34.375 "/>
<path fill-rule="nonzero" fill="rgb(0%, 17.599487%, 38.398743%)" fill-opacity="1" d="M 894.8125 41.378906 L 910.867188 41.378906 L 910.867188 37.878906 L 894.8125 37.878906 Z M 894.8125 41.378906 "/>
<path fill-rule="nonzero" fill="rgb(0%, 17.599487%, 38.398743%)" fill-opacity="1" d="M 914.324219 41.390625 L 917.886719 41.390625 L 917.886719 23.875 L 914.324219 23.875 Z M 914.324219 41.390625 "/>
<path fill-rule="nonzero" fill="rgb(0%, 17.599487%, 38.398743%)" fill-opacity="1" d="M 921.476562 34.375 L 925.039062 34.375 L 925.039062 23.871094 L 921.476562 23.871094 Z M 921.476562 34.375 "/>
<path fill-rule="nonzero" fill="rgb(0%, 17.599487%, 38.398743%)" fill-opacity="1" d="M 928.609375 41.390625 L 932.171875 41.390625 L 932.171875 23.875 L 928.609375 23.875 Z M 928.609375 41.390625 "/>
<path fill-rule="nonzero" fill="rgb(0%, 17.599487%, 38.398743%)" fill-opacity="1" d="M 824.332031 36.695312 L 824.332031 23.875 L 820.757812 23.875 L 820.757812 38.816406 C 820.757812 40.214844 821.914062 41.351562 823.335938 41.351562 L 832.953125 41.351562 L 832.953125 37.878906 L 825.535156 37.878906 C 824.871094 37.878906 824.332031 37.347656 824.332031 36.695312 Z M 824.332031 36.695312 "/>
<path fill-rule="nonzero" fill="rgb(0%, 50.19989%, 37.599182%)" fill-opacity="1" d="M 860.25 23.875 L 853.679688 41.398438 L 857.5 41.398438 L 858.796875 37.878906 L 864.625 37.878906 C 865.460938 37.882812 866.210938 38.378906 866.535156 39.136719 L 867.488281 41.378906 L 871.308594 41.378906 L 864.109375 23.875 Z M 860.125 34.375 L 862.246094 28.820312 L 864.597656 34.375 Z M 860.125 34.375 "/>
<g clip-path="url(#clip-0)">
<path fill-rule="nonzero" fill="rgb(0%, 17.599487%, 38.398743%)" fill-opacity="1" d="M 814.066406 33.464844 C 814.066406 35.929688 812.035156 37.925781 809.527344 37.925781 C 807.042969 37.898438 805.039062 35.910156 805.039062 33.464844 L 805.039062 23.875 L 801.507812 23.875 L 801.507812 33.503906 C 801.507812 37.859375 805.097656 41.390625 809.527344 41.390625 C 813.957031 41.390625 817.550781 37.859375 817.550781 33.503906 L 817.550781 23.875 L 814.066406 23.875 Z M 814.066406 33.464844 "/>
</g>
<path fill-rule="nonzero" fill="rgb(0%, 17.599487%, 38.398743%)" fill-opacity="1" d="M 846.011719 23.875 L 840.023438 30.667969 L 840.023438 23.875 L 836.554688 23.875 L 836.554688 41.390625 L 840.089844 41.390625 L 840.089844 37.417969 C 840.082031 36.488281 840.421875 35.585938 841.042969 34.882812 L 841.78125 34.066406 L 845.992188 41.390625 L 850.765625 41.390625 L 844.636719 30.960938 C 847.703125 27.601562 850.824219 23.875 850.824219 23.875 Z M 846.011719 23.875 "/>
<g clip-path="url(#clip-1)">
<path fill-rule="nonzero" fill="rgb(92.89856%, 10.198975%, 23.098755%)" fill-opacity="1" d="M 891.574219 53.320312 C 886.628906 53.320312 881.765625 48.777344 878.585938 41.117188 L 870.773438 22.484375 C 866.792969 12.964844 860.449219 7.464844 853.375 7.464844 C 846.6875 7.464844 840.699219 12.308594 836.699219 20.820312 L 841.941406 20.820312 C 845.046875 15.191406 849.171875 11.914062 853.402344 11.914062 C 858.359375 11.914062 863.210938 16.46875 866.398438 24.117188 L 874.203125 42.796875 C 878.183594 52.316406 884.527344 57.816406 891.605469 57.816406 C 898.289062 57.816406 904.285156 52.972656 908.289062 44.457031 L 903.035156 44.457031 C 899.914062 50.082031 895.769531 53.320312 891.574219 53.320312 Z M 891.574219 53.320312 "/>
</g>
<path fill-rule="nonzero" fill="rgb(92.89856%, 10.198975%, 23.098755%)" fill-opacity="1" d="M 915.164062 17.695312 L 913.703125 20.820312 L 919.195312 20.820312 L 921.421875 16.074219 L 917.8125 16.074219 C 916.679688 16.054688 915.644531 16.691406 915.164062 17.695312 Z M 915.164062 17.695312 "/>
<path fill-rule="nonzero" fill="rgb(0%, 17.599487%, 38.398743%)" fill-opacity="1" d="M 880.839844 41.390625 L 889.503906 41.390625 C 890.488281 41.390625 891.289062 40.601562 891.289062 39.632812 L 891.289062 37.878906 L 879.398438 37.878906 Z M 880.839844 41.390625 "/>
<path fill-rule="nonzero" fill="rgb(0%, 17.599487%, 38.398743%)" fill-opacity="1" d="M 891.289062 32.621094 C 891.285156 31.667969 890.503906 30.890625 889.53125 30.875 L 876.550781 30.875 L 878.0625 34.375 L 891.289062 34.375 Z M 891.289062 32.621094 "/>
<path fill-rule="nonzero" fill="rgb(0%, 17.599487%, 38.398743%)" fill-opacity="1" d="M 891.289062 23.910156 L 877.394531 23.910156 C 876.203125 23.910156 875.234375 24.863281 875.234375 26.03125 L 875.234375 27.375 L 891.289062 27.375 Z M 891.289062 23.910156 "/>
<g clip-path="url(#clip-2)">
<path fill-rule="nonzero" fill="rgb(0%, 50.19989%, 37.599182%)" fill-opacity="1" d="M 935.730469 41.398438 L 939.292969 41.398438 L 939.292969 30.875 L 935.730469 30.875 Z M 935.730469 41.398438 "/>
</g>
<g clip-path="url(#clip-3)">
<path fill-rule="nonzero" fill="rgb(0%, 50.19989%, 37.599182%)" fill-opacity="1" d="M 935.730469 27.375 L 939.292969 27.375 L 939.292969 23.875 L 935.730469 23.875 Z M 935.730469 27.375 "/>
</g>
</svg>
